HIERARCHY
ROOT root
{
	OFFSET 0.000000 0.000000 0.000000
	CHANNELS 6 Xposition Yposition Zposition Zrotation Yrotation Xrotation
	JOINT lhip
	{
		OFFSET 0.058581 -0.082280 -0.017664
		CHANNELS 3 Zrotation Yrotation Xrotation
		JOINT lknee
		{
			OFFSET 0.043451 -0.386469 0.008037
			CHANNELS 3 Zrotation Yrotation Xrotation
			JOINT lankle
			{
				OFFSET -0.014790 -0.426874 -0.037428
				CHANNELS 3 Zrotation Yrotation Xrotation
				JOINT ltoe
				{
					OFFSET 0.041054 -0.060286 0.122042
					CHANNELS 3 Zrotation Yrotation Xrotation
					End Site
					{
						OFFSET 0.000000 0.000000 0.000000
					}
				}
			}
		}
	}
	JOINT rhip
	{
		OFFSET -0.060310 -0.090513 -0.013543
		CHANNELS 3 Zrotation Yrotation Xrotation
		JOINT rknee
		{
			OFFSET -0.043257 -0.383688 -0.004843
			CHANNELS 3 Zrotation Yrotation Xrotation
			JOINT rankle
			{
				OFFSET 0.019056 -0.420046 -0.034562
				CHANNELS 3 Zrotation Yrotation Xrotation
				JOINT rtoe
				{
					OFFSET -0.034840 -0.062106 0.130323
					CHANNELS 3 Zrotation Yrotation Xrotation
					End Site
					{
						OFFSET 0.000000 0.000000 0.000000
					}
				}
			}
		}
	}
	JOINT lowerback
	{
		OFFSET 0.004439 0.124404 -0.038385
		CHANNELS 3 Zrotation Yrotation Xrotation
		JOINT upperback
		{
			OFFSET 0.004488 0.137956 0.026820
			CHANNELS 3 Zrotation Yrotation Xrotation
			JOINT chest
			{
				OFFSET -0.002265 0.056032 0.002855
				CHANNELS 3 Zrotation Yrotation Xrotation
				JOINT lowerneck
				{
					OFFSET -0.013390 0.211636 -0.033468
					CHANNELS 3 Zrotation Yrotation Xrotation
					JOINT upperneck
					{
						OFFSET 0.010113 0.088937 0.050410
						CHANNELS 3 Zrotation Yrotation Xrotation
						End Site
						{
							OFFSET 0.000000 0.000000 0.000000
						}
					}
				}
				JOINT lclavicle
				{
					OFFSET 0.071702 0.114000 -0.018898
					CHANNELS 3 Zrotation Yrotation Xrotation
					JOINT lshoulder
					{
						OFFSET 0.122921 0.045205 -0.019046
						CHANNELS 3 Zrotation Yrotation Xrotation
						JOINT lelbow
						{
							OFFSET 0.255332 -0.015649 -0.022946
							CHANNELS 3 Zrotation Yrotation Xrotation
							JOINT lwrist
							{
								OFFSET 0.265709 0.012698 -0.007375
								CHANNELS 3 Zrotation Yrotation Xrotation
								End Site
								{
									OFFSET 0.000000 0.000000 0.000000
								}
							}
						}
					}
				}
				JOINT rclavicle
				{
					OFFSET -0.082954 0.112472 -0.023707
					CHANNELS 3 Zrotation Yrotation Xrotation
					JOINT rshoulder
					{
						OFFSET -0.113228 0.046853 -0.008472
						CHANNELS 3 Zrotation Yrotation Xrotation
						JOINT relbow
						{
							OFFSET -0.260127 -0.014369 -0.031269
							CHANNELS 3 Zrotation Yrotation Xrotation
							JOINT rwrist
							{
								OFFSET -0.269108 0.006794 -0.006027
								CHANNELS 3 Zrotation Yrotation Xrotation
								End Site
								{
									OFFSET 0.000000 0.000000 0.000000
								}
							}
						}
					}
				}
			}
		}
	}
}
MOTION
Frames: 11
Frame Time: 0.033333
-1.469870 0.473566 0.997811 19.647400 7.769826 95.619104 0.013264 -6.524281 -21.347241 -8.938724 -9.088001 28.897800 16.311623 20.358448 -27.963741 0.000000 -0.000000 0.000000 -1.620711 0.567311 -24.789226 6.945279 -4.373799 65.581302 4.512635 -5.511020 6.511380 0.000000 -0.000000 0.000000 -0.059525 0.130902 1.658714 -3.032959 -2.215351 5.835364 -4.855354 1.478492 -5.547809 -6.682206 10.038400 -2.361076 6.206951 12.479797 -8.340996 -35.627807 -5.329003 0.630609 -41.882079 10.591439 8.194195 17.451578 -24.097324 -16.547379 4.697561 -16.793392 -0.180239 24.324797 3.739973 4.139762 53.037928 -15.102244 4.043884 18.540191 54.868291 22.608589 0.037010 19.215315 -4.471078 
-1.465214 0.443714 1.003235 23.382819 9.155491 95.591507 1.279593 -4.716188 -18.453467 -9.580944 -12.729339 28.464078 14.712939 18.605666 -29.388519 0.000000 -0.000000 0.000000 0.439246 1.227791 -29.056969 5.720328 -3.901606 65.609376 3.348818 -6.523384 3.676148 0.000000 -0.000000 0.000000 0.291417 -1.021477 3.280847 -2.721047 -1.286382 4.412030 -4.239912 1.274717 -5.026873 -5.818900 11.607255 -2.588307 5.868489 11.322626 -7.670102 -35.036379 -4.919106 -0.777966 -44.503482 7.465176 10.232458 17.199264 -27.545869 -13.239065 3.830091 -17.480249 2.521329 23.360777 1.681114 3.706873 53.910703 -18.011725 3.518245 18.948240 52.166323 24.243247 -0.130974 18.715882 -5.936512 
-1.449974 0.418854 1.005452 28.580613 8.381686 96.720153 -0.266160 -6.698766 -16.318465 -9.130979 -16.171261 27.857496 14.285515 18.585226 -30.095520 0.000000 -0.000000 0.000000 -1.747410 -0.090423 -32.808090 5.977156 -3.666863 62.040289 3.323092 -7.089547 1.287640 0.000000 -0.000000 0.000000 0.328877 -2.174548 2.759622 -2.517496 -1.915543 3.889753 -3.959096 1.031065 -4.212103 -6.512251 10.251513 -3.011462 6.745735 12.855242 -6.498662 -35.728875 -5.169776 -0.666330 -47.518220 5.174854 11.796319 17.601189 -31.740836 -11.085921 2.284161 -18.025653 2.694824 22.039307 0.036667 3.677370 54.746450 -20.419098 2.260250 17.951557 49.986352 22.750964 1.554722 18.031271 -7.528846 
-1.436044 0.392325 1.007353 32.948890 8.575534 97.213383 -0.390935 -7.232102 -13.658798 -8.744068 -19.443967 27.521104 13.226109 18.059491 -31.171496 0.000000 -0.000000 0.000000 -2.546583 0.107168 -34.410568 5.765797 -2.848937 55.026196 3.351904 -8.397420 -1.105818 0.000000 -0.000000 0.000000 1.138860 -3.093220 2.858964 -1.982759 -1.966737 3.667986 -3.419859 0.762541 -3.965197 -6.689429 9.622281 -3.181216 6.925704 13.442718 -5.489399 -36.093469 -4.929352 -0.284679 -50.722233 2.903026 13.492382 17.331025 -36.061015 -9.340988 1.366354 -18.803776 3.040813 20.722522 -1.506582 3.682458 55.544741 -21.643715 0.938991 16.686288 47.660114 21.136075 2.357344 17.426282 -9.007404 
-1.422430 0.366104 1.008578 37.110002 8.932961 97.571238 -0.071614 -7.640649 -11.358942 -8.621467 -22.480886 27.866396 12.082624 17.477164 -32.273755 0.000000 -0.000000 0.000000 -3.102246 0.842115 -34.778639 5.183029 -1.613635 45.718006 3.360030 -9.527310 -3.752267 0.000000 -0.000000 0.000000 2.151047 -3.867846 3.607358 -1.184524 -2.016655 3.231244 -2.875914 0.396871 -4.070850 -6.471435 9.043783 -3.691272 6.892671 13.714570 -4.306602 -36.181716 -4.243766 0.269897 -52.540987 0.729406 15.917813 15.216991 -41.036925 -4.737659 1.093272 -20.053230 2.994133 20.114900 -2.614781 3.511801 55.405426 -21.700791 0.802648 14.668933 45.066190 18.835547 2.584486 17.100011 -10.303750 
-1.407833 0.339248 1.008980 40.693550 8.899196 97.773717 0.044732 -7.777649 -9.013180 -8.606541 -24.984394 28.216136 11.041543 16.597656 -33.269804 0.000000 -0.000000 0.000000 -3.899058 1.471315 -34.039115 4.672003 0.564151 34.517032 3.272994 -9.682946 -5.649406 0.000000 -0.000000 0.000000 2.775543 -4.227468 4.329840 -0.172861 -2.142733 3.663579 -2.386352 0.176561 -5.123183 -5.898564 8.561079 -4.185840 6.644886 13.379655 -3.243246 -36.177815 -3.308788 0.980893 -52.302840 -1.142612 18.426750 11.243429 -46.785864 3.204098 0.437316 -22.118919 5.532432 20.428151 -3.259624 3.540289 54.249965 -20.907264 1.357489 12.540437 42.526060 16.319239 2.895875 17.226756 -10.499655 
-1.392414 0.311330 1.007334 43.653945 8.533283 98.244701 0.134330 -7.811945 -7.290751 -8.800238 -26.611387 28.876612 10.321328 15.433747 -34.167513 0.000000 -0.000000 0.000000 -4.979183 2.034738 -33.140169 4.541135 3.982629 23.021450 3.797248 -8.422497 -6.994358 0.000000 -0.000000 0.000000 3.277904 -4.195451 3.986137 0.946826 -2.393696 5.068236 -2.104980 0.232186 -6.568101 -4.890488 8.463122 -4.757432 5.999996 12.335434 -1.948005 -35.505197 -2.640579 1.774460 -51.672478 -2.264658 19.940078 6.833952 -52.380826 10.813740 -0.438624 -23.851126 9.264153 21.236117 -3.110025 4.082380 53.078642 -19.603214 1.435921 10.313085 40.395425 14.000023 3.333780 17.187348 -8.825301 
-1.375702 0.282675 1.003378 46.255128 7.924860 98.990062 0.065441 -8.321608 -6.258195 -9.387377 -27.717708 30.450016 9.880281 14.595066 -34.884354 0.000000 -0.000000 0.000000 -5.931586 2.348363 -32.926311 4.268150 8.298041 14.525983 4.805455 -6.624939 -8.107358 0.000000 -0.000000 0.000000 3.856951 -3.750452 2.631576 2.083730 -2.510535 6.457440 -1.758048 0.437588 -7.525024 -4.106490 7.949792 -5.150680 5.118955 11.370994 -0.339444 -34.349334 -2.540220 2.622904 -51.950636 -2.517261 20.743952 3.930395 -56.272987 14.020934 0.143826 -24.577153 8.611210 21.926340 -2.575445 4.532895 52.359998 -18.098205 1.373358 7.500648 38.282239 10.961563 2.632919 16.829041 -7.452062 
-1.357410 0.253392 0.997843 48.504180 7.292509 99.459304 -0.148970 -9.287571 -5.390555 -10.566149 -28.334408 33.401085 9.628893 14.265456 -35.258916 0.000000 -0.000000 0.000000 -6.366364 2.366438 -33.036668 4.369324 11.677191 11.201958 4.972911 -4.826772 -8.953431 0.000000 -0.000000 0.000000 4.790153 -3.067308 0.839168 3.203453 -2.300467 8.024117 -1.437782 0.757355 -8.174165 -3.620736 7.178419 -5.068113 3.803280 10.384836 1.134823 -33.185873 -2.518186 3.397741 -52.808762 -2.238263 20.935537 3.176757 -58.348174 13.001986 0.908027 -24.888807 5.017440 22.537114 -1.643020 4.940700 51.999722 -16.287630 1.451660 4.027168 35.892982 6.882785 1.223710 16.470748 -6.827131 
-1.336653 0.223094 0.991881 50.407939 6.761477 99.039917 -0.368724 -10.324290 -4.259886 -12.343437 -27.622661 37.776334 9.549837 13.789581 -34.463163 0.000000 -0.000000 0.000000 -6.622989 2.384712 -32.241001 5.480666 12.110434 13.033428 5.123374 -2.817889 -5.744090 0.000000 -0.000000 0.000000 6.101514 -2.341519 -0.270735 4.524036 -1.782515 9.195746 -1.220706 1.216373 -8.593377 -3.507437 6.600326 -4.017734 1.836193 9.123057 2.103866 -32.181642 -2.115690 4.176983 -53.751541 -1.743682 20.416399 3.252536 -58.779412 10.193918 1.217174 -25.085268 0.473797 23.368503 -0.250598 5.797442 51.136491 -14.193890 1.510200 0.546685 33.342804 2.043639 -0.089873 16.011643 -6.045362 
-1.314067 0.194301 0.986678 52.103929 6.375060 97.903567 -0.697654 -11.053667 -4.341466 -14.752460 -24.889212 45.030627 8.527093 12.272309 -30.525155 0.000000 -0.000000 0.000000 -6.853462 2.555725 -31.342280 6.507032 10.124372 18.740587 3.647683 -1.681371 -4.525058 0.000000 -0.000000 0.000000 8.433093 -1.812617 -0.180139 5.430281 -0.974206 9.674720 -1.292033 1.904873 -8.723631 -3.786678 6.153134 -3.046026 -0.588278 7.782990 3.317250 -31.981416 -0.817661 4.193993 -53.703422 -1.373972 19.516594 3.200653 -57.660044 7.545491 1.342147 -24.896750 -2.299068 24.855439 1.210283 6.930062 48.986398 -11.270842 1.932158 -2.256249 29.992338 -3.207272 -1.743023 15.983564 -4.569822 
